<?xml version="1.0" encoding="UTF-8" standalone="no"?>
<!DOCTYPE svg PUBLIC "-//W3C//DTD SVG 1.1//EN" "http://www.w3.org/Graphics/SVG/1.1/DTD/svg11.dtd">
<svg width="100%" height="100%" viewBox="0 0 2517 610" version="1.1" xmlns="http://www.w3.org/2000/svg" xmlns:xlink="http://www.w3.org/1999/xlink" xml:space="preserve" style="fill-rule:evenodd;clip-rule:evenodd;stroke-linejoin:round;stroke-miterlimit:1.41421;">
    <g transform="matrix(2,0,0,2,0,0)">
        <g id="Artboard1" transform="matrix(0.94579,0,0,0.933258,25.9265,13.2911)">
            <rect x="-27.412" y="-14.242" width="1330.32" height="326.442" style="fill:none;"/>
            <g transform="matrix(1.65673,0,0,1.67898,-15.4054,-5.36633)">
                <path d="M300.969,30.441L300.969,64.1C300.969,71.712 302.547,77.561 305.657,81.486C308.75,85.391 313.397,87.371 319.469,87.371C322.951,87.371 326.064,86.62 328.723,85.139C331.371,83.663 333.366,81.562 334.653,78.894L335.262,79.024L335.462,85.639L353.233,85.639L353.233,30.441L335.054,30.441L335.054,59.663C335.054,63.18 334.329,65.922 332.897,67.811C331.444,69.726 329.353,70.697 326.683,70.697C321.684,70.697 319.149,67.24 319.149,60.422L319.149,30.441L300.969,30.441Z" style="fill:rgb(37,57,121);fill-rule:nonzero;"/>
            </g>
            <g transform="matrix(1.65673,0,0,1.67898,-15.4054,-5.36633)">
                <path d="M376.345,0.791C373.45,0.791 370.994,1.779 369.044,3.729C367.094,5.677 366.106,8.113 366.106,10.968C366.106,13.823 367.094,16.241 369.042,18.152C370.99,20.066 373.447,21.037 376.345,21.037C379.242,21.037 381.699,20.066 383.65,18.152C385.598,16.24 386.586,13.823 386.586,10.968C386.586,8.114 385.598,5.678 383.647,3.729C381.696,1.779 379.238,0.791 376.345,0.791ZM367.256,85.639L385.436,85.639L385.436,30.441L367.256,30.441L367.256,85.639Z" style="fill:rgb(37,57,121);fill-rule:nonzero;"/>
            </g>
            <g transform="matrix(1.65673,0,0,1.67898,-15.4054,-5.36633)">
                <path d="M393.706,45.493L402.907,45.493L402.907,65.724C402.907,73.037 404.585,78.534 407.892,82.062C411.192,85.584 416.266,87.371 422.975,87.371C426.139,87.371 429.161,87.081 431.954,86.51C434.639,85.962 436.883,85.207 438.629,84.267L436.826,68.827C434.433,70.069 431.57,70.697 428.308,70.697C425.634,70.697 423.719,69.963 422.617,68.515C421.517,67.076 420.983,64.711 420.983,61.287L420.983,45.493L436.248,45.493L436.248,30.441L420.983,30.441L420.983,16.05L402.907,16.05L402.907,30.441L393.706,30.441L393.706,45.493Z" style="fill:rgb(37,57,121);fill-rule:nonzero;"/>
            </g>
            <g transform="matrix(1.65673,0,0,1.67898,-15.4054,-5.36633)">
                <path d="M482.571,66.211C480.548,68.339 477.935,69.402 474.729,69.402C471.522,69.402 468.891,68.339 466.836,66.211C464.779,64.083 463.752,61.359 463.752,58.041C463.752,54.434 464.779,51.476 466.836,49.167C468.891,46.859 471.522,45.705 474.729,45.705C477.935,45.705 480.548,46.859 482.571,49.167C484.591,51.476 485.603,54.434 485.603,58.041C485.603,61.359 484.591,64.083 482.571,66.211ZM486.017,30.441L485.783,37.687L485.225,36.782C483.659,34.246 481.52,32.246 478.866,30.838C476.207,29.426 473.267,28.711 470.129,28.711C465.339,28.711 461.004,30.057 457.244,32.709C453.476,35.368 450.521,38.966 448.463,43.404C446.402,47.852 445.356,52.848 445.356,58.257C445.356,63.878 446.453,68.89 448.615,73.154C450.773,77.41 453.708,80.717 457.333,82.983C460.957,85.248 465.085,86.397 469.606,86.397C472.957,86.397 476.006,85.769 478.672,84.534C481.328,83.299 483.503,81.532 485.134,79.279L485.713,78.478L485.713,82.063C485.713,91.825 480.295,96.776 469.606,96.776C466.945,96.776 463.998,96.354 460.846,95.521C457.894,94.739 455.34,93.739 453.246,92.545L451.442,108.828C453.624,109.992 456.695,111.002 460.577,111.834C464.578,112.69 468.495,113.125 472.219,113.125C482.327,113.125 490.077,110.427 495.255,105.106C500.431,99.782 503.057,91.812 503.057,81.414L503.057,30.441L486.017,30.441Z" style="fill:rgb(37,57,121);fill-rule:nonzero;"/>
            </g>
            <g transform="matrix(1.65673,0,0,1.67898,-15.4054,-5.36633)">
                <path d="M550.464,51.651L530.798,51.651L530.872,51.272C532.085,44.923 535.462,41.705 540.91,41.705C543.564,41.705 545.769,42.574 547.464,44.288C549.147,45.997 550.145,48.356 550.43,51.3L550.464,51.651ZM541.223,28.711C535.662,28.711 530.705,30.006 526.49,32.559C522.276,35.114 518.99,38.64 516.729,43.037C514.464,47.444 513.314,52.492 513.314,58.041C513.314,64.157 514.654,69.47 517.293,73.836C519.932,78.199 523.702,81.581 528.502,83.885C533.316,86.198 539.038,87.371 545.511,87.371C549.437,87.371 553.303,87.009 557.002,86.294C560.597,85.599 563.825,84.585 566.6,83.279L565.004,69.344C562.718,70.413 560.089,71.265 557.182,71.88C554.103,72.531 551.02,72.861 548.019,72.861C543.311,72.861 539.546,72.064 536.829,70.492C534.084,68.905 532.187,66.422 531.193,63.111L531.07,62.699L566.788,62.699C567.165,60.839 567.356,58.691 567.356,56.309C567.356,47.852 564.975,41.063 560.281,36.132C555.592,31.207 549.18,28.711 541.223,28.711Z" style="fill:rgb(37,57,121);fill-rule:nonzero;"/>
            </g>
            <g transform="matrix(1.65673,0,0,1.67898,-15.4054,-5.36633)">
                <path d="M591.634,85.639L610.943,85.639L630.684,30.441L612.041,30.441L601.539,68.371L591.787,30.441L571.893,30.441L591.634,85.639Z" style="fill:rgb(37,57,121);fill-rule:nonzero;"/>
            </g>
            <g transform="matrix(1.65673,0,0,1.67898,-15.4054,-5.36633)">
                <path d="M671.222,51.651L651.556,51.651L651.629,51.272C652.842,44.923 656.219,41.705 661.668,41.705C664.321,41.705 666.526,42.574 668.221,44.288C669.904,45.997 670.902,48.356 671.187,51.3L671.222,51.651ZM661.981,28.711C656.42,28.711 651.463,30.006 647.248,32.559C643.033,35.114 639.748,38.64 637.487,43.037C635.221,47.444 634.071,52.492 634.071,58.041C634.071,64.157 635.411,69.47 638.05,73.836C640.689,78.199 644.46,81.581 649.259,83.885C654.073,86.198 659.796,87.371 666.268,87.371C670.194,87.371 674.06,87.009 677.76,86.294C681.354,85.599 684.582,84.585 687.357,83.279L685.761,69.344C683.475,70.413 680.846,71.265 677.939,71.88C674.86,72.531 671.777,72.861 668.776,72.861C664.068,72.861 660.303,72.064 657.586,70.492C654.841,68.905 652.945,66.422 651.95,63.111L651.827,62.699L687.545,62.699C687.922,60.839 688.113,58.691 688.113,56.309C688.113,47.852 685.733,41.063 681.038,36.132C676.349,31.207 669.938,28.711 661.981,28.711Z" style="fill:rgb(37,57,121);fill-rule:nonzero;"/>
            </g>
            <g transform="matrix(1.65673,0,0,1.67898,-15.4054,-5.36633)">
                <path d="M699.416,85.639L717.596,85.639L717.596,62.044C717.596,57.09 718.548,53.294 720.43,50.762C722.331,48.198 725.178,46.899 728.894,46.899C731.208,46.899 733.431,47.322 735.51,48.16L736.921,30.431C735.269,29.72 733.308,29.359 731.089,29.359C728.103,29.359 725.457,30.159 723.223,31.736C720.981,33.318 719.189,35.621 717.896,38.582L717.283,38.462L717.081,30.441L699.416,30.441L699.416,85.639Z" style="fill:rgb(37,57,121);fill-rule:nonzero;"/>
            </g>
            <g transform="matrix(1.65673,0,0,1.67898,-15.4054,-5.36633)">
                <path d="M741.159,82.024C743.403,83.603 746.46,84.894 750.25,85.865C754.147,86.865 758.254,87.371 762.455,87.371C770.084,87.371 776.072,85.826 780.25,82.779C784.395,79.755 786.497,75.437 786.497,69.944C786.497,65.003 785.05,61 782.195,58.047C779.325,55.077 774.628,52.74 768.232,51.101C765.033,50.292 762.918,49.555 761.765,48.845C760.554,48.101 759.94,47.082 759.94,45.813C759.94,43.446 761.982,42.246 766.011,42.246C768.602,42.246 771.407,42.631 774.351,43.393C777.13,44.111 779.758,45.087 782.168,46.296L783.961,32.994C781.73,31.7 778.887,30.656 775.507,29.892C772.024,29.109 768.442,28.711 764.86,28.711C757.786,28.711 752.153,30.29 748.118,33.405C744.108,36.5 742.074,40.821 742.074,46.245C742.074,51.185 743.468,55.116 746.217,57.925C748.988,60.758 753.706,63.095 760.239,64.873C763.507,65.756 765.621,66.512 766.702,67.184C767.843,67.892 768.421,68.893 768.421,70.161C768.421,72.599 766.028,73.835 761.306,73.835C758.151,73.835 754.884,73.339 751.595,72.361C748.482,71.436 745.642,70.152 743.148,68.541L741.159,82.024Z" style="fill:rgb(37,57,121);fill-rule:nonzero;"/>
            </g>
            <g transform="matrix(1.65673,0,0,1.67898,-15.4054,-5.36633)">
                <path d="M16.152,36.947L27.954,36.947C32.187,36.947 35.395,36.117 37.487,34.481C39.55,32.867 40.596,30.327 40.596,26.931C40.596,23.815 39.567,21.417 37.537,19.803C35.48,18.169 32.326,17.34 28.164,17.34L16.152,17.34L16.152,36.947ZM16.152,71.972L31.001,71.972C35.158,71.972 38.395,70.986 40.623,69.042C42.836,67.111 43.958,64.335 43.958,60.789C43.958,53.621 39.445,50.136 30.16,50.136L16.152,50.136L16.152,71.972ZM32.156,85.374L0.146,85.374L0.146,3.938L30.265,3.938C38.719,3.938 45.322,5.769 49.889,9.381C54.483,13.015 56.812,18.242 56.812,24.914C56.812,28.647 55.893,32.105 54.08,35.193C52.423,38.015 50.189,40.266 47.429,41.895C51.431,43.188 54.667,45.538 57.056,48.89C59.613,52.479 60.91,56.768 60.91,61.638C60.91,69.295 58.406,75.234 53.467,79.29C48.551,83.326 41.381,85.374 32.156,85.374Z" style="fill:rgb(35,31,32);fill-rule:nonzero;"/>
            </g>
            <g transform="matrix(1.65673,0,0,1.67898,-15.4054,-5.36633)">
                <path d="M96.246,42.813C92.177,42.813 88.826,44.234 86.288,47.038C83.74,49.853 82.448,53.516 82.448,57.923C82.448,62.403 83.757,66.101 86.338,68.913C88.91,71.717 92.243,73.139 96.246,73.139C100.246,73.139 103.579,71.717 106.153,68.913C108.735,66.099 110.044,62.401 110.044,57.923C110.044,53.516 108.752,49.853 106.204,47.038C103.665,44.234 100.315,42.813 96.246,42.813ZM96.246,87.072C90.952,87.072 86.028,85.842 81.613,83.415C77.193,80.988 73.627,77.512 71.013,73.084C68.398,68.66 67.072,63.559 67.072,57.923C67.072,52.716 68.308,47.85 70.745,43.46C73.184,39.069 76.677,35.503 81.129,32.861C85.583,30.22 90.669,28.88 96.246,28.88C101.538,28.88 106.46,30.092 110.876,32.482C115.297,34.878 118.864,38.336 121.478,42.762C124.094,47.191 125.419,52.292 125.419,57.923C125.419,63.201 124.184,68.102 121.746,72.492C119.307,76.885 115.813,80.452 111.362,83.091C106.907,85.733 101.821,87.072 96.246,87.072Z" style="fill:rgb(35,31,32);fill-rule:nonzero;"/>
            </g>
            <g transform="matrix(1.65673,0,0,1.67898,-15.4054,-5.36633)">
                <path d="M160.649,42.813C156.58,42.813 153.23,44.234 150.692,47.038C148.144,49.853 146.852,53.516 146.852,57.923C146.852,62.403 148.16,66.101 150.742,68.913C153.314,71.717 156.647,73.139 160.649,73.139C164.65,73.139 167.983,71.717 170.556,68.913C173.138,66.099 174.447,62.401 174.447,57.923C174.447,53.516 173.155,49.853 170.607,47.038C168.069,44.234 164.719,42.813 160.649,42.813ZM160.649,87.072C155.355,87.072 150.432,85.842 146.017,83.415C141.597,80.988 138.031,77.512 135.417,73.084C132.801,68.66 131.476,63.559 131.476,57.923C131.476,52.716 132.712,47.85 135.149,43.46C137.588,39.069 141.081,35.503 145.533,32.861C149.987,30.22 155.073,28.88 160.649,28.88C165.941,28.88 170.863,30.092 175.28,32.482C179.7,34.878 183.267,38.336 185.882,42.762C188.497,47.191 189.823,52.292 189.823,57.923C189.823,63.201 188.587,68.102 186.15,72.492C183.71,76.885 180.216,80.452 175.766,83.091C171.311,85.733 166.225,87.072 160.649,87.072Z" style="fill:rgb(35,31,32);fill-rule:nonzero;"/>
            </g>
            <g transform="matrix(1.65673,0,0,1.67898,-15.4054,-5.36633)">
                <path d="M281.543,85.374L266.167,85.374L266.167,54.951C266.167,50.743 265.416,47.607 263.933,45.631C262.475,43.691 260.174,42.707 257.096,42.707C254.016,42.707 251.555,43.871 249.785,46.165C247.991,48.491 247.081,51.768 247.081,55.907L247.081,85.374L231.706,85.374L231.706,54.951C231.706,50.741 230.971,47.604 229.522,45.627C228.098,43.69 225.781,42.707 222.636,42.707C219.485,42.707 216.989,43.871 215.219,46.165C213.425,48.491 212.515,51.732 212.515,55.801L212.515,85.374L197.14,85.374L197.14,30.579L211.984,30.579L212.075,36.353C213.637,34.076 215.66,32.294 218.1,31.046C220.908,29.609 224.237,28.88 227.994,28.88C235.621,28.88 241.134,31.979 244.393,38.093C245.899,35.435 248.144,33.248 251.076,31.584C254.237,29.79 257.747,28.88 261.51,28.88C267.97,28.88 272.982,30.889 276.405,34.851C279.814,38.797 281.543,44.632 281.543,52.192L281.543,85.374Z" style="fill:rgb(35,31,32);fill-rule:nonzero;"/>
            </g>
            <g transform="matrix(1.65673,0,0,1.67898,-15.4054,-5.36633)">
                <path d="M9.187,157.028L19.845,157.028C34.251,157.028 41.454,150.311 41.454,136.877C41.454,123.442 34.275,116.724 19.918,116.724L9.187,116.724L9.187,157.028ZM0,109.231L20.947,109.231C27.072,109.231 32.388,110.311 36.897,112.469C41.405,114.628 44.883,117.779 47.335,121.927C49.784,126.073 51.008,131.032 51.008,136.804C51.008,145.583 48.29,152.397 42.85,157.246C37.411,162.096 29.742,164.521 19.845,164.521L0,164.521L0,109.231Z" style="fill:rgb(18,22,24);fill-rule:nonzero;"/>
            </g>
            <g transform="matrix(1.65673,0,0,1.67898,-15.4054,-5.36633)">
                <path d="M84.597,142.624C84.401,139.617 83.495,137.289 81.877,135.639C80.26,133.991 78.031,133.166 75.189,133.166C72.396,133.166 70.118,133.991 68.354,135.639C66.589,137.289 65.511,139.617 65.12,142.624L84.597,142.624ZM77.909,165.685C73.694,165.685 69.995,164.922 66.81,163.393C63.625,161.866 61.151,159.623 59.386,156.664C57.623,153.707 56.741,150.238 56.741,146.262C56.741,142.527 57.512,139.18 59.056,136.221C60.599,133.263 62.792,130.924 65.634,129.201C68.475,127.48 71.758,126.619 75.483,126.619C78.864,126.619 81.865,127.346 84.487,128.801C87.108,130.256 89.154,132.366 90.625,135.131C92.094,137.894 92.83,141.121 92.83,144.806C92.83,146.65 92.73,148.032 92.536,148.953L65.193,148.953C65.732,152.106 67.165,154.543 69.493,156.264C71.82,157.986 74.87,158.846 78.644,158.846C83.053,158.846 87.218,157.901 91.138,156.01L92.021,162.557C90.208,163.528 88.051,164.292 85.552,164.848C83.053,165.406 80.505,165.685 77.909,165.685Z" style="fill:rgb(18,22,24);fill-rule:nonzero;"/>
            </g>
            <g transform="matrix(1.65673,0,0,1.67898,-15.4054,-5.36633)">
                <path d="M101.501,127.783L109.586,127.783L109.66,132.512C110.688,130.62 112.207,129.165 114.217,128.146C116.226,127.128 118.554,126.619 121.199,126.619C125.657,126.619 129.075,127.965 131.452,130.657C133.829,133.347 135.018,137.217 135.018,142.26L135.018,164.521L126.564,164.521L126.564,143.788C126.564,140.49 125.94,138.04 124.69,136.44C123.441,134.84 121.518,134.039 118.921,134.039C116.078,134.039 113.873,134.961 112.306,136.804C110.737,138.647 109.954,141.218 109.954,144.515L109.954,164.521L101.501,164.521L101.501,127.783Z" style="fill:rgb(18,22,24);fill-rule:nonzero;"/>
            </g>
            <g transform="matrix(1.65673,0,0,1.67898,-15.4054,-5.36633)">
                <path d="M159.44,109.231L168.628,109.231L168.628,132.075L198.396,132.075L198.396,109.231L207.583,109.231L207.583,164.521L198.396,164.521L198.396,139.714L168.628,139.714L168.628,164.521L159.44,164.521L159.44,109.231Z" style="fill:rgb(18,22,24);fill-rule:nonzero;"/>
            </g>
            <g transform="matrix(1.65673,0,0,1.67898,-15.4054,-5.36633)">
                <path d="M236.395,158.192C239.727,158.192 242.433,157.064 244.517,154.809C246.599,152.554 247.64,149.656 247.64,146.116C247.64,142.576 246.586,139.689 244.479,137.458C242.372,135.228 239.677,134.112 236.395,134.112C233.111,134.112 230.416,135.228 228.31,137.458C226.202,139.689 225.149,142.576 225.149,146.116C225.149,149.656 226.189,152.554 228.272,154.809C230.354,157.064 233.062,158.192 236.395,158.192ZM234.263,165.685C230.931,165.685 227.93,164.885 225.259,163.285C222.588,161.684 220.481,159.405 218.938,156.446C217.395,153.488 216.623,150.069 216.623,146.188C216.623,142.696 217.382,139.471 218.901,136.512C220.42,133.554 222.563,131.166 225.333,129.346C228.101,127.528 231.2,126.619 234.631,126.619C237.374,126.619 239.849,127.164 242.054,128.256C244.259,129.346 245.998,130.887 247.272,132.875L247.42,127.783L255.578,127.783L255.578,164.521L247.42,164.521L247.272,159.502C244.577,163.625 240.24,165.685 234.263,165.685Z" style="fill:rgb(18,22,24);fill-rule:nonzero;"/>
            </g>
            <g transform="matrix(1.65673,0,0,1.67898,-15.4054,-5.36633)">
                <path d="M283.434,158.192C286.766,158.192 289.472,157.064 291.556,154.809C293.638,152.554 294.679,149.656 294.679,146.116C294.679,142.576 293.625,139.689 291.519,137.458C289.411,135.228 286.716,134.112 283.434,134.112C280.15,134.112 277.455,135.228 275.349,137.458C273.241,139.689 272.188,142.576 272.188,146.116C272.188,149.656 273.229,152.554 275.312,154.809C277.394,157.064 280.101,158.192 283.434,158.192ZM281.302,165.685C277.97,165.685 274.969,164.885 272.298,163.285C269.627,161.684 267.521,159.405 265.978,156.446C264.434,153.488 263.662,150.069 263.662,146.188C263.662,142.696 264.421,139.471 265.94,136.512C267.459,133.554 269.603,131.166 272.372,129.346C275.14,127.528 278.239,126.619 281.67,126.619C284.413,126.619 286.888,127.164 289.093,128.256C291.298,129.346 293.037,130.887 294.312,132.875L294.459,127.783L302.617,127.783L302.617,164.521L294.459,164.521L294.312,159.502C291.616,163.625 287.279,165.685 281.302,165.685Z" style="fill:rgb(18,22,24);fill-rule:nonzero;"/>
            </g>
            <g transform="matrix(1.65673,0,0,1.67898,-15.4054,-5.36633)">
                <path d="M330.473,158.192C333.805,158.192 336.511,157.064 338.595,154.809C340.677,152.554 341.718,149.656 341.718,146.116C341.718,142.576 340.664,139.689 338.558,137.458C336.45,135.228 333.755,134.112 330.473,134.112C327.189,134.112 324.494,135.228 322.388,137.458C320.28,139.689 319.228,142.576 319.228,146.116C319.228,149.656 320.268,152.554 322.351,154.809C324.433,157.064 327.14,158.192 330.473,158.192ZM329.076,183C326.577,183 323.979,182.709 321.285,182.127C318.59,181.545 316.482,180.842 314.964,180.017L315.92,172.305C317.536,173.324 319.459,174.124 321.689,174.706C323.919,175.288 326.185,175.579 328.488,175.579C332.898,175.579 336.144,174.536 338.227,172.451C340.309,170.365 341.351,167.115 341.351,162.703L341.351,159.502C338.655,163.625 334.318,165.685 328.341,165.685C325.009,165.685 322.008,164.885 319.337,163.285C316.666,161.684 314.56,159.405 313.017,156.446C311.473,153.488 310.701,150.069 310.701,146.188C310.701,142.696 311.46,139.471 312.979,136.512C314.498,133.554 316.642,131.166 319.411,129.346C322.179,127.528 325.278,126.619 328.709,126.619C331.452,126.619 333.927,127.164 336.132,128.256C338.337,129.346 340.076,130.887 341.351,132.875L341.498,127.783L349.656,127.783L349.656,162.121C349.656,169.007 347.929,174.209 344.475,177.725C341.02,181.241 335.887,183 329.076,183Z" style="fill:rgb(18,22,24);fill-rule:nonzero;"/>
            </g>
        </g>
    </g>
</svg>
